<?xml version="1.0" encoding="UTF-8"?>
<svg id="Layer_2" data-name="Layer 2" xmlns="http://www.w3.org/2000/svg" viewBox="0 0 1282.32 337.21">
  <defs>
    <style>
      .cls-1 {
        fill: #131458;
      }
    </style>
  </defs>
  <g id="Layer_1-2" data-name="Layer 1">
    <g>
      <g>
        <path class="cls-1" d="m404.37,15.2h-46.82v125.1h46.82c37.53,0,66.12-26.99,66.12-62.37s-28.59-62.73-66.12-62.73Zm0,103.83h-22.88V36.47h22.88c23.23,0,41.46,18.05,41.46,41.46s-18.23,41.1-41.46,41.1Z"/>
        <rect class="cls-1" x="486.92" y="47.73" width="22.7" height="92.57"/>
        <path class="cls-1" d="m498.36,35.58c7.15,0,13.05-5.9,13.05-13.05s-5.9-13.05-13.05-13.05-13.22,5.72-13.22,13.05,5.9,13.05,13.22,13.05Z"/>
        <path class="cls-1" d="m562.87,124.94c-10.01,0-19.66-3.57-30.2-10.9l-11.44,15.01c10.54,8.4,25.2,13.05,42,13.05,22.88,0,40.03-12.87,40.03-30.2,0-14.48-10.01-23.59-28.24-26.27l-17.51-2.5c-9.47-1.43-13.23-4.11-13.23-9.83s6.26-10.01,15.55-10.01,18.76,3.04,28.77,9.29l11.08-14.83c-11.44-7.68-24.31-11.62-37.71-11.62-23.23,0-37.89,11.44-37.89,28.95,0,14.83,9.47,23.95,27.88,26.81l17.51,2.5c8.58,1.25,12.33,4.29,12.33,9.65,0,6.43-7.51,10.9-18.94,10.9Z"/>
        <path class="cls-1" d="m675.1,120.47c-4.65,1.61-8.22,2.14-13.05,2.14-9.47,0-13.05-3.39-13.05-12.33v-43.61h26.81v-18.94h-26.81v-28.77l-22.52,5.18v23.59h-19.12v18.94h19.12v48.43c0,17.51,10.37,26.63,30.2,26.63,5.36,0,13.4-1.07,18.41-2.68v-18.59Z"/>
        <path class="cls-1" d="m699.58,35.58c7.15,0,13.05-5.9,13.05-13.05s-5.9-13.05-13.05-13.05-13.23,5.72-13.23,13.05,5.9,13.05,13.23,13.05Z"/>
        <rect class="cls-1" x="688.14" y="47.73" width="22.7" height="92.57"/>
        <path class="cls-1" d="m753.18,75.61c4.47-6.43,11.44-10.01,20.02-10.01,12.33,0,20.38,7.86,20.38,20.55v54.15h22.52v-57.55c0-21.63-15.01-36.82-36.46-36.82-10.37,0-19.48,3.4-26.45,9.83v-8.04h-22.69v92.57h22.69v-64.69Z"/>
        <path class="cls-1" d="m903.12,111.53c-6.97,7.33-14.3,10.72-22.88,10.72-15.19,0-26.81-12.15-26.81-28.24s11.44-28.24,26.27-28.24c8.93,0,16.8,3.75,23.59,11.26l13.94-14.83c-9.47-10.37-23.41-16.26-37.89-16.26-27.16,0-48.25,21.09-48.25,48.07s21.09,48.07,48.25,48.07c14.12,0,27.7-6.08,37.35-16.26l-13.58-14.3Z"/>
        <path class="cls-1" d="m974.24,141.74c5.36,0,13.4-1.07,18.41-2.68v-18.59c-4.64,1.61-8.22,2.14-13.05,2.14-9.47,0-13.05-3.39-13.05-12.33v-43.61h26.81v-18.94h-26.81v-28.77l-22.52,5.18v23.59h-19.12v18.94h19.12v48.43c0,17.51,10.37,26.63,30.2,26.63Z"/>
        <polygon class="cls-1" points="381.5 175.65 357.55 175.65 357.55 300.75 450.84 300.75 450.84 279.48 381.5 279.48 381.5 175.65"/>
        <path class="cls-1" d="m506.41,206.74c-26.45,0-47.18,20.91-47.18,47.72s21.45,48.07,49.33,48.07c14.48,0,25.73-4.11,36.99-13.05l-14.83-13.76c-5,4.83-12.69,7.69-21.09,7.69-13.76,0-24.48-8.94-27.52-21.45h69.88v-5.9c0-28.24-19.48-49.33-45.57-49.33Zm-24.48,38.96c2.86-12.33,11.97-20.19,23.95-20.19s21.09,8.4,23.77,20.19h-47.72Z"/>
        <path class="cls-1" d="m606.84,206.39c-13.05,0-25.91,3.22-40.21,9.83l8.22,16.8c11.62-5.36,20.37-7.68,28.24-7.68,13.4,0,20.37,5.72,20.37,17.16v7.51c-7.15-2.68-15.19-3.93-23.41-3.93-23.59,0-37.53,10.37-37.53,27.88s13.76,28.41,33.78,28.41c10.54,0,19.3-2.68,27.16-8.58v6.97h22.34v-60.41c0-21.63-14.12-33.96-38.96-33.96Zm16.62,72.74c-5.9,4.65-13.05,6.79-21.45,6.79-10.9,0-18.05-4.82-18.05-12.33s7.15-12.51,18.94-12.51c7.69,0,14.3,1.25,20.55,4.11v13.94Z"/>
        <path class="cls-1" d="m734.25,214.79c-7.51-5.18-16.62-7.86-25.92-7.86-26.81,0-47.54,20.73-47.54,47.54s20.55,47.54,46.83,47.54c10.19,0,19.48-3.22,26.81-9.29v8.04h22.52v-129.03l-22.7,3.93v39.14Zm0,58.26c-5.72,6.26-13.76,9.65-23.06,9.65-15.91,0-28.24-12.33-28.24-28.42s12.33-28.06,28.24-28.06c9.12,0,17.52,3.39,23.06,9.29v37.53Z"/>
        <path class="cls-1" d="m819.67,206.74c-26.45,0-47.18,20.91-47.18,47.72s21.45,48.07,49.33,48.07c14.48,0,25.73-4.11,36.99-13.05l-14.83-13.76c-5,4.83-12.69,7.69-21.09,7.69-13.76,0-24.49-8.94-27.52-21.45h69.88v-5.9c0-28.24-19.48-49.33-45.57-49.33Zm-24.48,38.96c2.86-12.33,11.97-20.19,23.95-20.19s21.09,8.4,23.77,20.19h-47.72Z"/>
        <path class="cls-1" d="m903.48,218.9v-10.72h-22.7v92.57h22.7v-60.59c4.82-9.29,12.87-14.48,22.88-14.48,4.11,0,8.4.89,11.97,2.32v-20.02c-2.68-1.25-5.18-1.79-10.01-1.79-10.36,0-18.94,4.47-24.84,12.69Z"/>
        <path class="cls-1" d="m998.36,246.06l-17.52-2.5c-9.47-1.43-13.22-4.11-13.22-9.83s6.25-10.01,15.55-10.01,18.76,3.04,28.77,9.29l11.08-14.83c-11.44-7.68-24.31-11.62-37.71-11.62-23.23,0-37.89,11.44-37.89,28.95,0,14.83,9.47,23.95,27.88,26.81l17.51,2.5c8.58,1.25,12.33,4.29,12.33,9.65,0,6.43-7.5,10.9-18.94,10.9-10.01,0-19.66-3.57-30.2-10.9l-11.44,15.01c10.54,8.4,25.2,13.05,42,13.05,22.88,0,40.03-12.87,40.03-30.2,0-14.48-10.01-23.59-28.23-26.27Z"/>
        <path class="cls-1" d="m1088.25,206.39c-10.37,0-19.48,3.4-26.45,9.83v-45.57l-22.7,5v125.1h22.7v-64.69c4.47-6.43,11.44-10.01,20.02-10.01,12.33,0,20.37,7.86,20.37,20.55v54.15h22.52v-57.55c0-21.63-15.01-36.82-36.46-36.82Z"/>
        <path class="cls-1" d="m1155.26,169.93c-7.33,0-13.23,5.72-13.23,13.05s5.9,13.05,13.23,13.05,13.05-5.9,13.05-13.05-5.9-13.05-13.05-13.05Z"/>
        <rect class="cls-1" x="1143.82" y="208.17" width="22.7" height="92.57"/>
        <path class="cls-1" d="m1235.32,206.92c-10.01,0-19.3,3.22-26.81,9.29v-8.04h-22.34v129.03h22.7v-43.07c7.5,5.18,16.44,7.86,25.91,7.86,26.81,0,47.54-20.73,47.54-47.54s-20.55-47.54-47-47.54Zm-3.39,75.77c-9.12,0-17.52-3.4-23.05-9.29v-37.53c5.54-6.25,13.76-9.47,23.05-9.47,15.91,0,28.24,12.15,28.24,28.24s-12.15,28.06-28.24,28.06Z"/>
      </g>
      <g>
        <path class="cls-1" d="m272.81,255.53c14.58-16.72,25.66-36.51,32.03-58.26l-52.13,6.33,20.11,51.94Z"/>
        <path class="cls-1" d="m233.67,20.59l-2.55,47.41,46.83-9.24c-12.17-15.42-27.2-28.36-44.29-38.16Z"/>
        <path class="cls-1" d="m42.45,259.86l25.29-59.35-63.2-9.82c6.45,26.28,19.7,49.98,37.91,69.18Z"/>
        <path class="cls-1" d="m17.17,83.65C6.26,104.76,0,128.75,0,154.48c0,.8.11,1.58.12,2.38l56.14-28.51-39.09-44.7Z"/>
        <path class="cls-1" d="m266.59,131.87l44.4,24.44c0-.62.09-1.21.09-1.83,0-20.7-4.08-40.26-11.28-58.13l-33.22,35.52Z"/>
        <path class="cls-1" d="m176.19,307.56c25.04-3.24,48.28-12.52,68.18-26.42l-48.41-31.53-19.77,57.95Z"/>
        <path class="cls-1" d="m92.77,13.23c-21.06,9.14-39.6,22.69-54.49,39.57l55.56,12.91-1.07-52.48Z"/>
        <path class="cls-1" d="m67.91,281.66c21.19,14.45,46.15,23.91,73.2,26.54l-18.19-59.8-55,33.27Z"/>
        <path class="cls-1" d="m193.01,4.47c-11.71-2.81-23.86-4.47-36.4-4.47-8.1,0-15.98.78-23.74,1.91l30.02,39.96,30.11-37.41Z"/>
        <polygon class="cls-1" points="181.78 153.88 205.77 144.91 181.06 138.17 193.67 115.88 170.41 126.6 165.75 101.42 154.82 124.58 135.06 108.29 141.58 133.06 115.97 133.28 136.88 148.06 117.41 164.69 142.93 162.58 138.7 187.83 156.89 169.81 169.89 191.87 172.23 166.37 196.37 174.92 181.78 153.88"/>
      </g>
    </g>
  </g>
</svg>