<svg width="28" height="28" viewBox="0 0 28 28" fill="none" xmlns="http://www.w3.org/2000/svg">
<rect width="28" height="28" fill="#1E1E1E"/>
<g clip-path="url(#clip0_0_1)">
<rect width="1440" height="2255" transform="translate(-814 -2047)" fill="white"/>
<rect x="-814" y="-2047" width="1440" height="2255" fill="#FAFAFA"/>
<path d="M15.7116 14.0641C15.7116 13.144 14.929 12.3979 13.9639 12.3979C12.9988 12.3979 12.2152 13.144 12.2152 14.0641C12.2152 14.9843 12.9978 15.7313 13.9639 15.7313C14.929 15.7304 15.7116 14.9843 15.7116 14.0641Z" fill="black"/>
<path d="M15.7116 25.7098C15.7116 24.7896 14.929 24.0426 13.9639 24.0426C12.9988 24.0426 12.2152 24.7887 12.2152 25.7098C12.2152 26.6308 12.9978 27.377 13.9639 27.377C14.929 27.376 15.7116 26.6299 15.7116 25.7098Z" fill="black"/>
<path d="M15.7116 19.8865C15.7116 18.9664 14.929 18.2193 13.9639 18.2193C12.9988 18.2193 12.2152 18.9655 12.2152 19.8865C12.2152 20.8066 12.9978 21.5537 13.9639 21.5537C14.929 21.5537 15.7116 20.8076 15.7116 19.8865Z" fill="black"/>
<path d="M9.36948 24.9826C9.85253 24.1854 9.56588 23.166 8.72971 22.7055C7.89355 22.2449 6.82429 22.5182 6.34124 23.3154C5.85819 24.1126 6.14484 25.132 6.98101 25.5926C7.81816 26.0531 8.88742 25.7798 9.36948 24.9826Z" fill="black"/>
<path d="M4.25913 21.3305C5.0953 20.87 5.38195 19.8506 4.8989 19.0534C4.41585 18.2562 3.34659 17.9829 2.51043 18.4434C1.67426 18.904 1.38761 19.9234 1.87066 20.7206C2.35371 21.5178 3.42297 21.7901 4.25913 21.3305Z" fill="black"/>
<path d="M1.74771 15.7303C2.71282 15.7303 3.49642 14.9842 3.49642 14.0632C3.49642 13.143 2.71381 12.3969 1.74771 12.3969C0.782602 12.3979 0 13.144 0 14.0641C0 14.9842 0.782602 15.7303 1.74771 15.7303Z" fill="black"/>
<path d="M2.51043 9.68471C3.34659 10.1452 4.41585 9.87195 4.8989 9.07477C5.38195 8.27758 5.0953 7.25817 4.25913 6.79763C3.42297 6.3371 2.35371 6.61039 1.87066 7.40758C1.38761 8.20476 1.67426 9.22418 2.51043 9.68471Z" fill="black"/>
<path d="M6.34209 4.81183C6.82514 5.60901 7.8944 5.88231 8.73057 5.42178C9.56673 4.96124 9.85339 3.94182 9.37034 3.14464C8.88728 2.34745 7.81803 2.07416 6.98186 2.53469C6.1457 2.99522 5.85904 4.01464 6.34209 4.81183Z" fill="black"/>
<path d="M12.2152 2.41835C12.2152 3.33848 12.9978 4.08459 13.9629 4.08459C14.928 4.08459 15.7116 3.33848 15.7116 2.41835C15.7116 1.49823 14.929 0.751163 13.9629 0.751163C12.9978 0.752109 12.2152 1.49823 12.2152 2.41835Z" fill="black"/>
<path d="M18.5563 3.14561C18.0733 3.9428 18.3599 4.96222 19.1961 5.42275C20.0323 5.88329 21.1015 5.60999 21.5846 4.8128C22.0676 4.01562 21.781 2.9962 20.9448 2.53567C20.1086 2.07513 19.0394 2.34843 18.5563 3.14561Z" fill="black"/>
<path d="M23.6675 6.79763C22.8314 7.25817 22.5447 8.27758 23.0278 9.07477C23.5108 9.87195 24.5801 10.1452 25.4162 9.68471C26.2524 9.22418 26.5391 8.20476 26.056 7.40758C25.573 6.61039 24.5037 6.3371 23.6675 6.79763Z" fill="black"/>
<path d="M26.1779 12.3979C25.2128 12.3979 24.4292 13.144 24.4292 14.0641C24.4292 14.9843 25.2118 15.7313 26.1779 15.7313C27.144 15.7313 27.9256 14.9852 27.9256 14.0641C27.9266 13.144 27.144 12.3979 26.1779 12.3979Z" fill="black"/>
<path d="M25.4153 18.4434C24.5791 17.9828 23.5098 18.2561 23.0268 19.0533C22.5437 19.8505 22.8304 20.8699 23.6666 21.3305C24.5027 21.791 25.572 21.5177 26.055 20.7205C26.5381 19.9233 26.2514 18.9039 25.4153 18.4434Z" fill="black"/>
<path d="M21.5846 23.3164C21.1015 22.5192 20.0323 22.2459 19.1961 22.7064C18.3599 23.167 18.0733 24.1864 18.5563 24.9836C19.0394 25.7808 20.1086 26.0541 20.9448 25.5935C21.781 25.133 22.0676 24.1136 21.5846 23.3164Z" fill="black"/>
<path d="M9.54783 18.4188C10.384 17.9583 10.6706 16.9389 10.1876 16.1417C9.70455 15.3445 8.63529 15.0712 7.79912 15.5318C6.96296 15.9923 6.6763 17.0117 7.15935 17.8089C7.6424 18.6061 8.71166 18.8794 9.54783 18.4188Z" fill="black"/>
<path d="M7.80022 12.5965C8.63639 13.057 9.70565 12.7837 10.1887 11.9865C10.6717 11.1893 10.3851 10.1699 9.54893 9.70937C8.71276 9.24884 7.6435 9.52213 7.16045 10.3193C6.6774 11.1165 6.96406 12.1359 7.80022 12.5965Z" fill="black"/>
<path d="M12.2152 8.24171C12.2152 9.16184 12.9978 9.90796 13.9629 9.90796C14.928 9.90796 15.7116 9.16184 15.7116 8.24171C15.7116 7.32159 14.929 6.57453 13.9629 6.57453C12.9978 6.57453 12.2152 7.32065 12.2152 8.24171Z" fill="black"/>
<path d="M18.3777 9.70937C17.5416 10.1699 17.2549 11.1893 17.738 11.9865C18.221 12.7837 19.2903 13.057 20.1264 12.5965C20.9626 12.1359 21.2493 11.1165 20.7662 10.3193C20.2832 9.52213 19.2139 9.24884 18.3777 9.70937Z" fill="black"/>
<path d="M20.1264 15.5318C19.2903 15.0712 18.221 15.3445 17.738 16.1417C17.2549 16.9389 17.5416 17.9583 18.3777 18.4188C19.2139 18.8794 20.2832 18.6061 20.7662 17.8089C21.2493 17.0117 20.9626 15.9923 20.1264 15.5318Z" fill="black"/>
</g>
<defs>
<clipPath id="clip0_0_1">
<rect width="1440" height="2255" fill="white" transform="translate(-814 -2047)"/>
</clipPath>
</defs>
</svg>
